<svg height='300px' width='300px'  xmlns="http://www.w3.org/2000/svg" viewBox="0 0 24 24" fill="none" x="0px" y="0px"><path fill-rule="evenodd" clip-rule="evenodd" d="M10.5019 5.2286C10.9438 5.11487 11.2526 4.71645 11.2526 4.26017L11.2526 3.00813H13.2526V4.26017C13.2526 4.71645 13.5615 5.11487 14.0034 5.2286C14.6492 5.39483 15.2313 5.6348 15.7844 5.96158C16.1792 6.1949 16.6822 6.1297 17.0045 5.8034C17.1967 5.60883 17.5404 5.26553 17.8974 4.91101C18.3419 5.3528 18.8755 5.88838 19.3192 6.3341L19.3194 6.33426L19.3194 6.33482C19.3194 6.33603 19.3191 6.33676 19.3191 6.33689C19.3191 6.3369 19.3191 6.33691 19.3191 6.3369L19.319 6.33698L19.3178 6.33828C19.0132 6.64427 18.6995 6.96231 18.4219 7.25265C18.1123 7.5765 18.0559 8.06678 18.2838 8.4525C18.613 9.00956 18.867 9.61578 19.0322 10.2574C19.1459 10.6993 19.5443 11.0081 20.0006 11.0081H21.2525H21.2526V13.0081H21.2525L20.0006 13.0081C19.5443 13.0081 19.1459 13.317 19.0322 13.7589C18.8668 14.4012 18.6125 15.008 18.2827 15.5656C18.0474 15.9634 18.1155 16.4707 18.4472 16.7925C18.676 17.0144 18.9865 17.3221 19.3322 17.6675C18.887 18.1172 18.3478 18.6596 17.9066 19.0968C17.736 18.9241 17.5562 18.74 17.3978 18.5778L17.3976 18.5776C17.2421 18.4184 17.1073 18.2803 17.0221 18.195C16.6996 17.872 16.1992 17.8085 15.8061 18.0406C15.2496 18.3692 14.6442 18.6227 14.0034 18.7877C13.5615 18.9014 13.2526 19.2998 13.2526 19.7561L13.2526 21.008V21.0081H11.2526L11.2526 21.008V19.7561C11.2526 19.2998 10.9438 18.9014 10.5019 18.7877C9.85313 18.6207 9.24055 18.3629 8.67839 18.0283C8.28845 17.7962 7.79111 17.8558 7.46701 18.1734C7.30647 18.3307 7.06 18.5796 6.79787 18.8443L6.57496 19.0693C6.13205 18.6331 5.59075 18.094 5.15379 17.6551C5.40604 17.4039 5.66742 17.1459 5.86758 16.9483L6.05675 16.7615C6.38223 16.4396 6.44757 15.9378 6.21538 15.5432C5.8874 14.986 5.63627 14.3928 5.47311 13.7589C5.35938 13.317 4.96096 13.0081 4.50467 13.0081H3.25277H3.25264V11.0081L3.25277 11.0081H4.50467C4.96096 11.0081 5.35938 10.6993 5.47311 10.2574C5.63868 9.6141 5.89356 9.00639 6.22404 8.44812C6.45627 8.05584 6.39379 7.55615 6.07213 7.23311C5.72238 6.88187 5.44746 6.61091 5.21501 6.3818L5.18072 6.348C5.61987 5.90413 6.15336 5.36681 6.59181 4.92916C6.92912 5.26605 7.27813 5.6141 7.49065 5.8244C7.81417 6.14455 8.31307 6.20584 8.70446 5.97353C9.26297 5.64202 9.85403 5.39535 10.5019 5.2286ZM14.2526 3.00798V4.26017C14.9867 4.44909 15.6565 4.72448 16.2931 5.10065C16.491 4.90031 16.843 4.54879 17.2045 4.18983C17.5884 3.80866 18.2041 3.80595 18.5878 4.18728C19.0373 4.63395 19.5795 5.17817 20.0279 5.62861C20.4175 6.01994 20.4161 6.65243 20.0265 7.04376C19.7234 7.34825 19.4153 7.66069 19.1447 7.94372C19.521 8.58047 19.8116 9.27391 20.0006 10.0081H21.2525C21.8048 10.0081 22.2526 10.4558 22.2526 11.0081V13.0081C22.2526 13.5604 21.8048 14.0081 21.2525 14.0081L20.0006 14.0081C19.8114 14.7432 19.5204 15.4373 19.1435 16.0747C19.3785 16.3026 19.6944 16.6158 20.0421 16.9633C20.4299 17.3508 20.4311 17.9789 20.0454 18.3685C19.5868 18.8317 19.0257 19.3962 18.5734 19.8438C18.1988 20.2147 17.6045 20.2131 17.2336 19.8384C17.0366 19.6394 16.8438 19.4419 16.6782 19.2722L16.6781 19.2721C16.5296 19.12 16.403 18.9902 16.3146 18.9017C15.6785 19.2773 14.9859 19.5674 14.2526 19.7561L14.2526 21.008C14.2526 21.5603 13.8049 22.0081 13.2526 22.0081H11.2526C10.7004 22.0081 10.2526 21.5603 10.2526 21.008V19.7561C9.51023 19.565 8.80952 19.27 8.16695 18.8876C8.01235 19.0391 7.77424 19.2795 7.51382 19.5425L7.51356 19.5428L7.26375 19.7949C6.88612 20.1756 6.27849 20.1807 5.89635 19.8045C5.43797 19.3533 4.87045 18.788 4.41969 18.335C4.04257 17.9561 4.04151 17.3517 4.42023 16.9743C4.68271 16.7127 4.95883 16.4402 5.16648 16.2352L5.16678 16.2349L5.35356 16.0505C4.98082 15.4171 4.69241 14.7376 4.50467 14.0081H3.25277C2.70049 14.0081 2.25264 13.5604 2.25264 13.0081V11.0081C2.25264 10.4558 2.70049 10.0081 3.25277 10.0081H4.50467C4.69414 9.27198 4.98576 8.57684 5.36352 7.93871C5.01718 7.5909 4.74523 7.32286 4.51284 7.09382L4.45892 7.04067C4.07324 6.66047 4.07442 6.04439 4.4553 5.65938C4.90244 5.20739 5.45124 4.65462 5.89927 4.20753C6.2845 3.8231 6.90411 3.82772 7.28917 4.21232C7.62956 4.55229 7.98147 4.90324 8.19404 5.1136C8.83437 4.73353 9.5134 4.45044 10.2526 4.26017V3.00804C10.2526 2.45575 10.7004 2.00813 11.2526 2.00813H13.2526C13.8049 2.00813 14.2526 2.4557 14.2526 3.00798ZM15.2364 11.9919C15.2364 13.6487 13.8932 14.9919 12.2364 14.9919C10.5795 14.9919 9.23637 13.6487 9.23637 11.9919C9.23637 10.335 10.5795 8.99187 12.2364 8.99187C13.8932 8.99187 15.2364 10.335 15.2364 11.9919ZM16.2364 11.9919C16.2364 14.201 14.4455 15.9919 12.2364 15.9919C10.0272 15.9919 8.23637 14.201 8.23637 11.9919C8.23637 9.78273 10.0272 7.99187 12.2364 7.99187C14.4455 7.99187 16.2364 9.78273 16.2364 11.9919Z" fill="black"></path></svg>