<svg height='300px' width='300px'  fill="#000000" xmlns="http://www.w3.org/2000/svg" data-name="Layer 1" viewBox="0 0 32 32" x="0px" y="0px"><title>ui interface warning caution</title><g><path d="M30.8721,24.3828,18.5264,5.0933a2.9987,2.9987,0,0,0-5.0528,0L1.1279,24.3828H1.127A3.001,3.001,0,0,0,3.6543,29H28.3457a3,3,0,0,0,2.5264-4.6172ZM29.2227,26.48a.9812.9812,0,0,1-.877.52H3.6543a1,1,0,0,1-.8418-1.5391h-.001L15.1572,6.1714a1.0278,1.0278,0,0,1,1.6856,0L29.1875,25.4609A.9774.9774,0,0,1,29.2227,26.48Z"></path><path d="M16,11a1,1,0,0,0-1,1v8a1,1,0,0,0,2,0V12A1,1,0,0,0,16,11Z"></path><circle cx="16" cy="24" r="1"></circle></g></svg>