<svg height='300px' width='300px'  fill="#000000" xmlns="http://www.w3.org/2000/svg" xmlns:xlink="http://www.w3.org/1999/xlink" version="1.1" x="0px" y="0px" viewBox="0 0 100 100" enable-background="new 0 0 100 100" xml:space="preserve"><path d="M53.411,53.039l-3.503,3.502l-6.448-6.448l3.502-3.503c0.586-0.586,0.586-1.535,0-2.121s-1.535-0.586-2.121,0l-3.502,3.503  l-2.082-2.081c-0.562-0.562-1.559-0.562-2.121,0l-3.215,3.216c-4.32,4.319-4.643,11.135-0.987,15.84l-2.419,2.419  c-0.586,0.586-0.586,1.535,0,2.121c0.293,0.293,0.676,0.439,1.061,0.439c0.383,0,0.768-0.146,1.061-0.439l2.418-2.419  c2.097,1.634,4.654,2.528,7.354,2.528c3.207,0,6.221-1.248,8.488-3.516l3.215-3.216c0.586-0.586,0.586-1.535,0-2.121l-2.081-2.081  l3.503-3.502c0.586-0.586,0.586-1.535,0-2.121S53.997,52.453,53.411,53.039z M48.774,63.959c-1.701,1.7-3.962,2.637-6.367,2.637  c-2.404,0-4.665-0.937-6.365-2.637c-3.51-3.511-3.51-9.222,0-12.731l2.154-2.155L48.845,59.72c0.001,0.001,0.002,0.003,0.002,0.004  c0.002,0.001,0.004,0.001,0.004,0.003l2.078,2.077L48.774,63.959z M69.485,32.635c0.586-0.585,0.586-1.535,0-2.121  s-1.535-0.586-2.121,0l-2.419,2.42c-4.705-3.654-11.521-3.332-15.84,0.986l-3.216,3.217c-0.293,0.293-0.439,0.676-0.439,1.061  c0,0.383,0.146,0.768,0.439,1.061L60.742,54.11c0.293,0.293,0.677,0.439,1.061,0.439c0.001,0,0.001,0,0.001,0  c0.384,0,0.768-0.146,1.061-0.439l3.216-3.216c2.267-2.267,3.516-5.28,3.516-8.486c0-2.7-0.895-5.258-2.529-7.354L69.485,32.635z   M63.959,48.773l-2.155,2.155L49.071,38.197l2.155-2.156c3.51-3.508,9.221-3.508,12.732,0.002c1.7,1.7,2.637,3.961,2.637,6.365  S65.659,47.073,63.959,48.773z"></path></svg>